<svg xmlns="http://www.w3.org/2000/svg" viewBox="0 0 240 449">
  <defs>
    <style>
      .a {
        fill: #9f17a1;
      }

      .b {
        fill: #911616;
      }

      .c {
        fill: #e85c0b;
      }

      .d {
        fill: #1e4a84;
      }

      .e {
        fill: #ffbf61;
      }

      .f {
        fill: #3e8948;
      }

      .g {
        fill: #4fa54b;
      }

      .h {
        fill: #3472a5;
      }

      .i {
        fill: #f97527;
      }

      .j {
        fill: #d13f17;
      }

      .k {
        fill: #6a188a;
      }

      .l {
        fill: #e43b44;
      }

      .m {
        fill: #58a0cd;
      }

      .n {
        fill: #80c6f2;
      }
    </style>
  </defs>
  <title>redroof</title>
  <g>
    <rect class="a" x="31.3" y="427.64" width="31.3" height="10.43"/>
    <polygon class="a" points="31.3 396.33 0 396.33 0 427.64 10.44 427.64 10.44 417.2 62.61 417.2 62.61 396.33 31.3 396.33"/>
    <rect class="a" x="31.3" y="375.46" width="10.43" height="10.43"/>
    <rect class="b" x="198.26" y="417.2" width="10.43" height="31.3"/>
    <rect class="b" x="177.39" y="417.2" width="10.43" height="31.3"/>
    <rect class="b" x="156.52" y="417.2" width="10.43" height="31.3"/>
    <rect class="b" x="114.78" y="417.2" width="10.43" height="31.3"/>
    <rect class="b" x="93.91" y="417.2" width="10.43" height="31.3"/>
    <rect class="b" x="135.65" y="417.2" width="10.43" height="31.3"/>
    <polygon class="b" points="208.7 344.16 198.26 344.16 198.26 385.9 198.26 396.33 187.83 396.33 146.09 396.33 135.65 396.33 104.35 396.33 93.91 396.33 93.91 406.77 208.7 406.77 208.7 396.33 208.7 354.6 208.7 344.16"/>
    <polygon class="c" points="62.61 417.2 62.61 427.64 62.61 438.07 62.61 448.51 73.04 448.51 73.04 427.64 83.48 427.64 83.48 417.2 73.04 417.2 73.04 396.33 62.61 396.33 62.61 417.2"/>
    <rect class="c" x="229.57" y="427.64" width="10.43" height="10.43"/>
    <rect class="c" x="187.83" y="385.9" width="10.43" height="10.43"/>
    <rect class="c" x="135.65" y="385.9" width="10.43" height="10.43"/>
    <polygon class="c" points="104.35 281.55 114.78 281.55 114.78 271.12 104.35 271.12 104.35 260.68 93.91 260.68 93.91 333.73 93.91 354.6 93.91 396.33 104.35 396.33 104.35 281.55"/>
    <rect class="c" x="229.57" y="344.16" width="10.43" height="10.43"/>
    <rect class="c" x="198.26" y="302.42" width="10.43" height="10.43"/>
    <rect class="c" x="187.83" y="271.12" width="10.43" height="10.43"/>
    <rect class="c" x="114.78" y="260.68" width="10.43" height="10.43"/>
    <rect class="d" x="125.22" y="218.94" width="10.43" height="20.87"/>
    <rect class="d" x="156.52" y="218.94" width="10.43" height="20.87"/>
    <rect class="d" x="83.48" y="218.94" width="10.43" height="20.87"/>
    <rect class="d" x="62.61" y="218.94" width="10.43" height="20.87"/>
    <rect class="d" x="135.65" y="156.33" width="10.43" height="20.87"/>
    <rect class="d" x="83.48" y="156.33" width="10.43" height="20.87"/>
    <polygon class="e" points="219.13 354.6 219.13 396.33 240 396.33 240 354.6 229.56 354.6 219.13 354.6"/>
    <path class="e" d="M146.09,292V281.55H125.22V292H114.78v31.3h10.44v10.44H114.78V365h10.44v10.43h20.87V365h10.43v10.43h20.87V365h10.44v-31.3H177.39V323.29h10.44V292H177.39V281.55H156.52V292ZM167,323.29v10.44H146.09V302.42h10.43v20.87Z"/>
    <rect class="e" x="73.04" y="354.59" width="20.87" height="41.74"/>
    <path class="f" d="M114.78,104.16h10.44v10.43H114.78V177.2h10.44v10.44H114.78v10.43h10.44v10.44h10.43v31.3H125.22v-31.3H114.78v41.74h31.31v10.43H208.7V250.25H198.26V239.81H187.83v10.44H177.39V239.81h10.44v-31.3H177.39V177.2H167V145.9H156.52V125H146.09V83.29H114.78Zm41.74,83.48H167v10.43H156.52Zm0,31.3V208.51H167v31.3H156.52Zm-10.43-83.48V177.2H135.65V135.46H125.22V125h10.43v10.43Z"/>
    <rect class="f" x="125.22" y="51.99" width="10.43" height="20.87"/>
    <polygon class="g" points="93.91 250.25 93.91 260.68 104.35 260.68 114.78 260.68 125.22 260.68 146.09 260.68 146.09 250.25 114.78 250.25 114.78 208.51 125.22 208.51 125.22 198.07 114.78 198.07 114.78 187.64 125.22 187.64 125.22 177.2 114.78 177.2 114.78 114.59 125.22 114.59 125.22 104.16 114.78 104.16 114.78 83.29 104.35 83.29 104.35 250.25 93.91 250.25"/>
    <rect class="g" x="177.39" y="239.81" width="10.43" height="10.43"/>
    <rect class="g" x="156.52" y="208.51" width="10.43" height="10.43"/>
    <rect class="g" x="125.22" y="208.51" width="10.43" height="10.43"/>
    <rect class="g" x="156.52" y="187.64" width="10.43" height="10.43"/>
    <rect class="g" x="135.65" y="135.46" width="10.43" height="20.87"/>
    <rect class="g" x="125.22" y="125.03" width="10.43" height="10.43"/>
    <rect class="g" x="146.09" y="114.59" width="10.43" height="10.43"/>
    <rect class="g" x="114.78" y="51.99" width="10.43" height="20.87"/>
    <rect class="h" x="52.17" y="448.51" width="10.43" height="0.49"/>
    <rect class="h" y="448.51" width="20.87" height="0.49"/>
    <polygon class="h" points="31.3 385.9 31.3 375.46 31.3 354.6 0 354.6 0 396.33 31.3 396.33 31.3 385.9"/>
    <polygon class="h" points="156.52 302.42 146.09 302.42 146.09 333.73 166.96 333.73 166.96 323.29 156.52 323.29 156.52 302.42"/>
    <polygon class="h" points="73.04 333.73 73.04 312.86 73.04 291.99 62.61 291.99 62.61 281.55 52.17 281.55 52.17 291.99 41.74 291.99 41.74 354.6 52.17 354.6 52.17 365.03 62.61 365.03 62.61 354.6 62.61 333.73 73.04 333.73"/>
    <path class="h" d="M93.91,250.25h10.44v-167H93.91v31.3H83.48V145.9H73v31.3H62.61v31.31H52.17v31.3H41.74v10.44H31.3v10.43H93.91ZM73,239.81H62.61V218.94H73Zm10.44-83.48H93.91V177.2H83.48Zm0,62.61H93.91v20.87H83.48Z"/>
    <polygon class="h" points="114.78 72.86 114.78 51.99 104.35 51.99 104.35 83.29 114.78 83.29 135.65 83.29 135.65 72.86 125.22 72.86 114.78 72.86"/>
    <rect class="i" x="208.7" y="448.51" width="31.3" height="0.49"/>
    <polygon class="i" points="73.04 448.51 62.61 448.51 62.61 449 93.91 449 93.91 448.51 73.04 448.51"/>
    <rect class="i" x="208.7" y="354.59" width="10.43" height="41.74"/>
    <polygon class="i" points="62.61 354.6 62.61 365.03 62.61 396.33 73.04 396.33 73.04 354.6 62.61 354.6"/>
    <path class="j" d="M198.26,448.51V417.2H208.7v31.31H240V438.07H229.57V427.64H240V396.33H208.7v10.44H93.91V396.33H73V417.2H83.48v10.44H73v20.87H93.91V417.2h10.44v31.31H93.91V449H208.7v-.49Zm-73,0H114.78V417.2h10.44Zm20.87,0H135.65V417.2h10.44Zm20.87,0H156.52V417.2H167Zm20.87,0H177.39V417.2h10.44Z"/>
    <path class="j" d="M125.22,260.68v10.44H114.78v10.43H104.35V396.33h31.3V385.9h10.44v10.43h41.74V385.9h10.43V344.16H208.7v10.43h20.87V344.16H240V333.73H229.57V312.86H219.13v20.87H208.7V312.86H198.26V302.42H208.7V260.68H125.22Zm62.61,10.44h10.43v10.43H187.83Zm-10.44,10.43V292h10.44v73H177.39v10.43H125.22V365H114.78V292h10.44V281.55h52.17Z"/>
    <polygon class="j" points="83.48 312.86 73.04 312.86 73.04 333.73 62.61 333.73 62.61 354.6 73.04 354.6 93.91 354.6 93.91 333.73 83.48 333.73 83.48 312.86"/>
    <rect class="j" x="104.35" y="260.68" width="10.43" height="10.43"/>
    <polygon class="k" points="62.61 448.51 62.61 438.07 31.3 438.07 31.3 427.64 62.61 427.64 62.61 417.2 10.44 417.2 10.44 427.64 0 427.64 0 448.51 20.87 448.51 20.87 449 52.17 449 52.17 448.51 62.61 448.51"/>
    <polygon class="k" points="31.3 375.46 41.74 375.46 41.74 385.9 31.3 385.9 31.3 396.33 62.61 396.33 62.61 365.03 52.17 365.03 52.17 354.6 41.74 354.6 41.74 291.99 52.17 291.99 52.17 281.55 62.61 281.55 62.61 291.99 73.04 291.99 73.04 312.86 83.48 312.86 83.48 333.73 93.91 333.73 93.91 260.68 31.3 260.68 31.3 333.73 20.87 333.73 20.87 312.86 10.44 312.86 10.44 333.73 0 333.73 0 354.6 31.3 354.6 31.3 375.46"/>
    <rect class="l" x="62.61" width="10.43" height="31.12"/>
    <rect class="l" x="83.48" y="10.25" width="10.43" height="10.43"/>
    <rect class="l" x="104.35" width="10.43" height="31.12"/>
    <rect class="m" x="146.09" y="365.03" width="10.43" height="10.43"/>
    <rect class="m" x="177.39" y="323.29" width="10.43" height="10.43"/>
    <rect class="m" x="114.78" y="323.29" width="10.43" height="10.43"/>
    <rect class="m" x="146.09" y="281.55" width="10.43" height="10.43"/>
    <polygon class="m" points="114.78 51.99 125.22 51.99 125.22 0 114.78 0 114.78 31.12 114.78 51.99"/>
    <path class="n" d="M104.35,31.12V0H73V31.12ZM93.91,10.25V20.68H83.48V10.25Z"/>
  </g>
</svg>
