<svg xmlns="http://www.w3.org/2000/svg" viewBox="0 0 240 84.71">
  <defs>
    <style>
      .a {
        fill: #1653b4;
      }

      .b {
        fill: #3074dc;
      }

      .c {
        fill: none;
        stroke: #3074dc;
        stroke-linecap: round;
        stroke-linejoin: round;
        stroke-width: 0;
      }
    </style>
  </defs>
  <title>blueroof</title>
  <g>
    <polygon class="a" points="240 70.59 240 56.47 84.71 56.47 84.71 42.35 240 42.35 240 28.23 84.71 28.23 84.71 14.12 42.35 14.12 42.35 28.23 14.12 28.23 14.12 14.12 0 14.12 0 84.71 70.59 84.71 84.71 84.71 84.71 70.59 240 70.59"/>
    <polygon class="b" points="84.71 70.59 84.71 84.71 98.82 84.71 225.88 84.71 240 84.71 240 70.59 84.71 70.59"/>
    <line class="c" x1="70.59" y1="84.71" x2="84.71" y2="84.71"/>
    <rect class="b" x="84.71" y="42.35" width="155.29" height="14.12"/>
    <polygon class="b" points="240 28.23 240 14.12 225.88 14.12 225.88 0 211.76 0 211.76 14.12 98.82 14.12 98.82 0 84.71 0 84.71 14.12 84.71 28.23 240 28.23"/>
  </g>
</svg>
