<svg xmlns="http://www.w3.org/2000/svg" viewBox="0 0 230 170">
  <defs>
    <style>
      .a {
        fill: #3f8d8a;
      }

      .b, .f {
        fill: none;
        stroke-linecap: round;
        stroke-linejoin: round;
        stroke-width: 0;
      }

      .b {
        stroke: #74afa6;
      }

      .c {
        fill: #74afa6;
      }

      .d {
        fill: #e1622e;
      }

      .e {
        fill: #a9dbd0;
      }

      .f {
        stroke: #d1f0e9;
      }

      .g {
        fill: #d1f0e9;
      }
    </style>
  </defs>
  <title>greenroof</title>
  <g>
    <polygon class="a" points="60 110 60 100 0 100 0 170 10 170 10 110 20 110 20 170 40 170 50 170 50 110 60 110"/>
    <line class="b" x1="40" y1="170" x2="20" y2="170"/>
    <rect class="c" x="10" y="110" width="10" height="60"/>
    <rect class="c" x="50" y="110" width="10" height="60"/>
    <rect class="c" y="80" width="60" height="20"/>
    <polygon class="c" points="200 20 200 30 200 40 200 50 200 60 200 70 210 70 210 20 200 20"/>
    <polygon class="c" points="170 20 170 30 170 70 180 70 180 20 170 20"/>
    <rect class="c" x="90" y="20" width="10" height="50"/>
    <rect class="c" x="70" y="50" width="10" height="20"/>
    <rect class="c" x="50" y="20" width="10" height="50"/>
    <rect class="c" x="110" y="30" width="10" height="30"/>
    <rect class="c" x="140" y="30" width="10" height="40"/>
    <rect class="c" x="70" y="20" width="10" height="20"/>
    <rect class="c" x="130" y="20" width="10" height="10"/>
    <polygon class="d" points="220 20 210 20 210 70 230 70 230 60 220 60 220 20"/>
    <polygon class="d" points="190 60 190 50 200 50 200 40 190 40 190 30 200 30 200 20 180 20 180 70 200 70 200 60 190 60"/>
    <polygon class="d" points="140 20 140 30 150 30 150 70 160 70 160 30 170 30 170 20 140 20"/>
    <path class="d" d="M100,20V70h30V20Zm20,40H110V30h10Z"/>
    <polygon class="d" points="80 20 80 40 70 40 70 20 60 20 60 70 70 70 70 50 80 50 80 70 90 70 90 20 80 20"/>
    <rect class="d" x="180" width="10" height="10"/>
    <rect class="d" x="160" width="10" height="10"/>
    <rect class="d" x="140" width="10" height="10"/>
    <rect class="d" x="120" width="10" height="10"/>
    <rect class="d" x="100" width="10" height="10"/>
    <path class="e" d="M60,100v10H70v60h50V110h10v60h30V110h20v60h50V100Zm150,60V110h10v50Z"/>
    <line class="f" x1="220" y1="170" x2="200" y2="170"/>
    <line class="f" x1="120" y1="170" x2="80" y2="170"/>
    <line class="f" x1="190" y1="170" x2="180" y2="170"/>
    <line class="f" x1="130" y1="170" x2="160" y2="170"/>
    <rect class="g" x="160" y="110" width="20" height="60"/>
    <rect class="g" x="120" y="110" width="10" height="60"/>
    <rect class="g" x="60" y="110" width="10" height="60"/>
    <rect class="g" x="210" y="110" width="10" height="50"/>
    <rect class="g" x="60" y="80" width="170" height="20"/>
  </g>
</svg>
