<svg xmlns="http://www.w3.org/2000/svg" viewBox="0 0 240 151">
  <defs>
    <style>
      .a {
        fill: #c45a3d;
      }

      .b {
        fill: #944334;
      }

      .c {
        fill: #fec243;
      }

      .d {
        fill: #be4a2f;
      }

      .e {
        fill: #5a6988;
      }

      .f {
        fill: #feae34;
      }

      .g {
        fill: #d77643;
      }

      .h {
        fill: #8b9bb4;
      }
    </style>
  </defs>
  <title>yellowroof</title>
  <g>
    <rect class="a" x="26.67" y="133.23" width="8.89" height="8.89"/>
    <rect class="a" x="17.78" y="133.23" width="8.89" height="8.89"/>
    <rect class="a" x="26.67" y="115.45" width="8.89" height="8.89"/>
    <rect class="a" x="8.89" y="97.68" width="8.89" height="8.89"/>
    <rect class="a" y="97.68" width="8.89" height="8.89"/>
    <rect class="b" x="186.67" y="115.45" width="8.89" height="17.78"/>
    <rect class="b" x="133.33" y="115.45" width="8.89" height="17.78"/>
    <rect class="b" x="80" y="115.45" width="8.89" height="17.78"/>
    <rect class="b" x="186.67" y="62.12" width="8.89" height="44.44"/>
    <rect class="b" x="133.33" y="62.12" width="8.89" height="44.44"/>
    <rect class="b" x="80" y="62.12" width="8.89" height="44.44"/>
    <rect class="b" x="177.78" y="53.23" width="8.89" height="8.89"/>
    <rect class="b" x="124.44" y="53.23" width="8.89" height="8.89"/>
    <rect class="b" x="71.11" y="53.23" width="8.89" height="8.89"/>
    <rect class="a" x="35.56" y="44.34" width="8.89" height="8.89"/>
    <rect class="a" x="26.67" y="44.34" width="8.89" height="8.89"/>
    <rect class="c" x="186.67" y="142.12" width="8.89" height="8.88"/>
    <rect class="c" x="62.22" y="133.23" width="17.78" height="17.77"/>
    <polygon class="c" points="62.22 97.68 53.33 97.68 53.33 79.9 62.22 79.9 62.22 71.01 53.33 71.01 53.33 62.12 62.22 62.12 62.22 44.34 44.44 44.34 44.44 53.23 44.44 106.57 62.22 106.57 62.22 97.68"/>
    <polygon class="c" points="106.67 88.79 106.67 79.9 115.56 79.9 115.56 71.01 97.78 71.01 97.78 88.79 106.67 88.79"/>
    <rect class="c" x="204.44" y="53.23" width="8.89" height="8.89"/>
    <rect class="c" x="97.78" y="53.23" width="8.89" height="8.89"/>
    <polygon class="c" points="168.89 26.57 160 26.57 160 35.45 177.78 35.45 177.78 26.57 168.89 26.57"/>
    <polygon class="c" points="53.33 26.57 53.33 8.79 62.22 8.79 71.11 8.79 71.11 0 44.44 0 44.44 26.57 53.33 26.57"/>
    <rect class="c" x="195.56" width="8.89" height="8.79"/>
    <rect class="d" x="168.89" y="115.45" width="8.89" height="17.78"/>
    <rect class="d" x="115.56" y="115.45" width="8.89" height="17.78"/>
    <polygon class="d" points="186.67 62.12 177.78 62.12 168.89 62.12 168.89 106.57 186.67 106.57 186.67 62.12"/>
    <polygon class="d" points="115.56 106.57 133.33 106.57 133.33 62.12 124.44 62.12 115.56 62.12 115.56 71.01 115.56 79.9 115.56 106.57"/>
    <polygon class="d" points="62.22 79.9 62.22 97.68 62.22 106.57 80 106.57 80 62.12 71.11 62.12 62.22 62.12 62.22 71.01 62.22 79.9"/>
    <rect class="e" x="44.44" y="106.57" width="17.78" height="26.67"/>
    <polygon class="f" points="231.11 133.23 222.22 133.23 213.33 133.23 213.33 115.45 204.44 115.45 204.44 133.23 195.56 133.23 186.67 133.23 177.78 133.23 168.89 133.23 160 133.23 160 115.45 151.11 115.45 151.11 133.23 142.22 133.23 133.33 133.23 124.44 133.23 115.56 133.23 106.67 133.23 106.67 115.45 97.78 115.45 97.78 133.23 88.89 133.23 80 133.23 80 151 186.67 151 186.67 142.12 195.56 142.12 195.56 151 240 151 240 133.23 231.11 133.23"/>
    <polygon class="f" points="106.67 79.9 106.67 88.79 97.78 88.79 97.78 106.57 115.56 106.57 115.56 79.9 106.67 79.9"/>
    <rect class="f" x="53.33" y="79.9" width="8.89" height="17.78"/>
    <polygon class="f" points="62.22 62.12 71.11 62.12 71.11 53.23 80 53.23 88.89 53.23 88.89 62.12 97.78 62.12 97.78 53.23 106.67 53.23 106.67 62.12 97.78 62.12 97.78 71.01 115.56 71.01 115.56 62.12 124.44 62.12 124.44 53.23 133.33 53.23 142.22 53.23 142.22 62.12 151.11 62.12 151.11 106.57 168.89 106.57 168.89 62.12 177.78 62.12 177.78 53.23 186.67 53.23 195.56 53.23 195.56 62.12 204.44 62.12 204.44 53.23 213.33 53.23 213.33 62.12 204.44 62.12 204.44 106.57 222.22 106.57 222.22 44.34 62.22 44.34 62.22 62.12"/>
    <rect class="f" x="53.33" y="62.12" width="8.89" height="8.89"/>
    <path class="f" d="M80,8.79V26.57H71.11V8.79H62.22V26.57H44.44v8.88H160V8.79h8.89V26.57h8.89V8.79h8.89V26.57h-8.89v8.88h53.33V0H204.44V26.57h-8.88V0H71.11V8.79Zm133.33,0h8.89V26.57h-8.89Zm-71.11,0h8.89V26.57h-8.89Zm-17.78,0h8.89V26.57h-8.89Zm-17.77,0h8.89V26.57h-8.89Zm-17.78,0h8.89V26.57H88.89Z"/>
    <rect class="g" x="195.56" y="62.12" width="8.89" height="44.44"/>
    <rect class="g" x="142.22" y="62.12" width="8.89" height="44.44"/>
    <polygon class="g" points="97.78 106.57 97.78 88.79 97.78 71.01 97.78 62.12 88.89 62.12 88.89 106.57 97.78 106.57"/>
    <rect class="g" x="186.67" y="53.23" width="8.89" height="8.89"/>
    <rect class="g" x="133.33" y="53.23" width="8.89" height="8.89"/>
    <rect class="g" x="80" y="53.23" width="8.89" height="8.89"/>
    <path class="g" d="M44.44,133.23v-80H26.67V44.34H222.22V35.45H44.44V0H35.56V8.79H0V97.68H17.78v8.89H0V151H62.22V133.23Zm-8.88,8.89H17.78v-8.89H35.56Zm0-17.78H26.67v-8.89h8.89Z"/>
    <rect class="g" x="195.56" y="8.79" width="8.89" height="17.78"/>
    <rect class="g" x="124.44" y="8.79" width="8.89" height="17.78"/>
    <rect class="g" x="106.67" y="8.79" width="8.89" height="17.78"/>
    <rect class="g" x="213.33" y="8.79" width="8.89" height="17.78"/>
    <rect class="g" x="177.78" y="8.79" width="8.89" height="17.78"/>
    <rect class="g" x="160" y="8.79" width="8.89" height="17.78"/>
    <rect class="g" x="142.22" y="8.79" width="8.89" height="17.78"/>
    <rect class="g" x="88.89" y="8.79" width="8.89" height="17.78"/>
    <rect class="g" x="71.11" y="8.79" width="8.89" height="17.78"/>
    <rect class="g" x="53.33" y="8.79" width="8.89" height="17.78"/>
    <polygon class="h" points="195.56 106.57 186.67 106.57 168.89 106.57 151.11 106.57 142.22 106.57 133.33 106.57 115.56 106.57 97.78 106.57 88.89 106.57 80 106.57 62.22 106.57 62.22 133.23 80 133.23 80 115.45 88.89 115.45 88.89 133.23 97.78 133.23 97.78 115.45 106.67 115.45 106.67 133.23 115.56 133.23 115.56 115.45 124.44 115.45 124.44 133.23 133.33 133.23 133.33 115.45 142.22 115.45 142.22 133.23 151.11 133.23 151.11 115.45 160 115.45 160 133.23 168.89 133.23 168.89 115.45 177.78 115.45 177.78 133.23 186.67 133.23 186.67 115.45 195.56 115.45 195.56 133.23 204.44 133.23 204.44 115.45 213.33 115.45 213.33 133.23 222.22 133.23 222.22 115.45 231.11 115.45 231.11 133.23 240 133.23 240 106.57 222.22 106.57 204.44 106.57 195.56 106.57"/>
  </g>
</svg>
