<?xml version="1.0" encoding="utf-8"?>
<!-- Generator: Adobe Illustrator 24.0.1, SVG Export Plug-In . SVG Version: 6.00 Build 0)  -->
<svg version="1.1" id="Layer_1" xmlns="http://www.w3.org/2000/svg" xmlns:xlink="http://www.w3.org/1999/xlink" x="0px" y="0px"
	 viewBox="0 0 240 141.2" style="enable-background:new 0 0 240 141.2;" xml:space="preserve">
<style type="text/css">
	.st0{fill:#1653B4;}
	.st1{fill:#3074DC;}
	.st2{fill:none;stroke:#3074DC;stroke-width:0;stroke-linecap:round;stroke-linejoin:round;}
	.st3{fill:#4FD1F1;}
	.st4{fill:#AB05A9;}
	.st5{fill:#CE1ED7;}
	.st6{fill:#F53DFF;}
	.st7{fill:#C45A3D;}
	.st8{fill:#944334;}
	.st9{fill:#FEC243;}
	.st10{fill:#BE4A2F;}
	.st11{fill:#5A6988;}
	.st12{fill:#FEAE34;}
	.st13{fill:#D77643;}
	.st14{fill:#8B9BB4;}
	.st15{fill:#733E39;}
	.st16{fill:#3F8D8A;}
	.st17{fill:none;stroke:#74AFA6;stroke-width:0;stroke-linecap:round;stroke-linejoin:round;}
	.st18{fill:#74AFA6;}
	.st19{fill:#E1622E;}
	.st20{fill:#A9DBD0;}
	.st21{fill:none;stroke:#D1F0E9;stroke-width:0;stroke-linecap:round;stroke-linejoin:round;}
	.st22{fill:#D1F0E9;}
	.st23{fill:#9F17A1;}
	.st24{fill:#911616;}
	.st25{fill:#E85C0B;}
	.st26{fill:#1E4A84;}
	.st27{fill:#FFBF61;}
	.st28{fill:#3E8948;}
	.st29{fill:#4FA54B;}
	.st30{fill:#3472A5;}
	.st31{fill:#F97527;}
	.st32{fill:#D13F17;}
	.st33{fill:#6A188A;}
	.st34{fill:#E43B44;}
	.st35{fill:#58A0CD;}
	.st36{fill:#80C6F2;}
</style>
<g>
	<polygon class="st0" points="240,127.1 240,112.9 84.7,112.9 84.7,98.8 240,98.8 240,84.7 84.7,84.7 84.7,70.6 42.4,70.6 
		42.4,84.7 14.1,84.7 14.1,70.6 0,70.6 0,141.2 70.6,141.2 84.7,141.2 84.7,127.1 	"/>
	<polygon class="st1" points="84.7,127.1 84.7,141.2 98.8,141.2 225.9,141.2 240,141.2 240,127.1 	"/>
	<rect x="84.7" y="98.8" class="st1" width="155.3" height="14.1"/>
	<polygon class="st1" points="240,84.7 240,70.6 225.9,70.6 225.9,56.5 211.8,56.5 211.8,70.6 98.8,70.6 98.8,56.5 84.7,56.5 
		84.7,70.6 84.7,84.7 	"/>
</g>
</svg>
