<svg xmlns="http://www.w3.org/2000/svg" viewBox="0 0 240 141.18">
  <defs>
    <style>
      .a {
        fill: #4fd1f1;
      }

      .b {
        fill: #1653b4;
      }

      .c {
        fill: #3074dc;
      }

      .d {
        fill: none;
        stroke: #3074dc;
        stroke-linecap: round;
        stroke-linejoin: round;
        stroke-width: 0;
      }
    </style>
  </defs>
  <title>bluestory</title>
  <g>
    <polygon class="a" points="211.76 127.06 225.88 127.06 240 127.06 240 112.94 211.76 112.94 211.76 127.06"/>
    <rect class="a" x="141.18" y="112.94" width="28.24" height="14.12"/>
    <polygon class="a" points="84.71 112.94 84.71 127.06 98.82 127.06 112.94 127.06 112.94 112.94 84.71 112.94"/>
    <rect class="a" x="197.65" y="84.71" width="42.35" height="14.12"/>
    <rect class="a" x="84.71" y="84.71" width="14.12" height="14.12"/>
    <rect class="a" x="225.88" y="56.47" width="14.12" height="14.12"/>
    <rect class="a" x="84.71" y="56.47" width="28.24" height="14.12"/>
    <polygon class="a" points="211.76 28.23 211.76 42.35 240 42.35 240 28.23 225.88 28.23 211.76 28.23"/>
    <rect class="a" x="183.53" y="28.24" width="14.12" height="14.12"/>
    <polygon class="a" points="141.18 42.35 169.41 42.35 169.41 28.23 127.06 28.23 127.06 42.35 141.18 42.35"/>
    <polygon class="a" points="112.94 28.23 98.82 28.23 84.71 28.23 84.71 42.35 112.94 42.35 112.94 28.23"/>
    <polygon class="b" points="42.35 127.06 42.35 112.94 28.23 112.94 28.23 98.82 14.12 98.82 14.12 84.71 0 84.71 0 141.18 56.47 141.18 56.47 127.06 42.35 127.06"/>
    <rect class="b" x="211.76" y="127.06" width="14.12" height="14.12"/>
    <rect class="b" x="98.82" y="127.06" width="14.12" height="14.12"/>
    <rect class="b" x="197.65" y="112.94" width="14.12" height="14.12"/>
    <rect class="b" x="112.94" y="112.94" width="14.12" height="14.12"/>
    <rect class="b" x="183.53" y="98.82" width="14.12" height="14.12"/>
    <rect class="b" x="127.06" y="98.82" width="14.12" height="14.12"/>
    <rect class="b" x="169.41" y="84.71" width="14.12" height="14.12"/>
    <rect class="b" x="141.18" y="84.71" width="14.12" height="14.12"/>
    <polygon class="b" points="84.71 112.94 84.71 98.82 84.71 84.71 84.71 70.59 84.71 56.47 84.71 42.35 84.71 28.23 84.71 14.12 70.59 14.12 70.59 28.23 56.47 28.23 56.47 42.35 42.35 42.35 42.35 56.47 28.23 56.47 28.23 70.59 14.12 70.59 14.12 84.71 28.23 84.71 28.23 98.82 42.35 98.82 42.35 112.94 56.47 112.94 56.47 127.06 70.59 127.06 70.59 141.18 84.71 141.18 84.71 127.06 84.71 112.94"/>
    <rect class="b" x="155.29" y="70.59" width="14.12" height="14.12"/>
    <rect class="b" x="169.41" y="56.47" width="14.12" height="14.12"/>
    <rect class="b" x="141.18" y="56.47" width="14.12" height="14.12"/>
    <rect class="b" x="183.53" y="42.35" width="14.12" height="14.12"/>
    <rect class="b" x="127.06" y="42.35" width="14.12" height="14.12"/>
    <polygon class="b" points="14.12 70.59 14.12 56.47 28.23 56.47 28.23 42.35 42.35 42.35 42.35 28.23 56.47 28.23 56.47 14.12 70.59 14.12 70.59 0 0 0 0 70.59 14.12 70.59"/>
    <rect class="b" x="197.65" y="28.24" width="14.12" height="14.12"/>
    <rect class="b" x="112.94" y="28.24" width="14.12" height="14.12"/>
    <rect class="b" x="211.76" y="14.12" width="14.12" height="14.12"/>
    <rect class="b" x="98.82" y="14.12" width="14.12" height="14.12"/>
    <rect class="b" x="225.88" width="14.12" height="14.12"/>
    <rect class="b" x="84.71" width="14.12" height="14.12"/>
    <rect class="c" x="225.88" y="127.06" width="14.12" height="14.12"/>
    <rect class="c" x="84.71" y="127.06" width="14.12" height="14.12"/>
    <rect class="c" x="56.47" y="127.06" width="14.12" height="14.12"/>
    <rect class="c" x="42.35" y="112.94" width="14.12" height="14.12"/>
    <polygon class="c" points="197.65 112.94 211.76 112.94 240 112.94 240 98.82 197.65 98.82 197.65 112.94"/>
    <polygon class="c" points="197.65 127.06 197.65 112.94 183.53 112.94 183.53 98.82 169.41 98.82 169.41 84.71 155.29 84.71 155.29 98.82 141.18 98.82 141.18 112.94 169.41 112.94 169.41 127.06 141.18 127.06 141.18 112.94 127.06 112.94 127.06 127.06 112.94 127.06 112.94 141.18 211.76 141.18 211.76 127.06 197.65 127.06"/>
    <rect class="c" x="28.24" y="98.82" width="14.12" height="14.12"/>
    <polygon class="c" points="141.18 70.59 141.18 56.47 127.06 56.47 127.06 42.35 112.94 42.35 84.71 42.35 84.71 56.47 112.94 56.47 112.94 70.59 84.71 70.59 84.71 84.71 98.82 84.71 98.82 98.82 84.71 98.82 84.71 112.94 112.94 112.94 127.06 112.94 127.06 98.82 141.18 98.82 141.18 84.71 155.29 84.71 155.29 70.59 141.18 70.59"/>
    <rect class="c" x="14.12" y="84.71" width="14.12" height="14.12"/>
    <polygon class="c" points="197.65 42.35 197.65 56.47 183.53 56.47 183.53 70.59 169.41 70.59 169.41 84.71 183.53 84.71 183.53 98.82 197.65 98.82 197.65 84.71 240 84.71 240 70.59 225.88 70.59 225.88 56.47 240 56.47 240 42.35 211.76 42.35 197.65 42.35"/>
    <rect class="c" y="70.59" width="14.12" height="14.12"/>
    <rect class="c" x="14.12" y="56.47" width="14.12" height="14.12"/>
    <rect class="c" x="28.24" y="42.35" width="14.12" height="14.12"/>
    <rect class="c" x="42.35" y="28.24" width="14.12" height="14.12"/>
    <rect class="c" x="225.88" y="14.12" width="14.12" height="14.12"/>
    <rect class="c" x="84.71" y="14.12" width="14.12" height="14.12"/>
    <rect class="c" x="56.47" y="14.12" width="14.12" height="14.12"/>
    <polygon class="c" points="112.94 14.12 112.94 28.23 127.06 28.23 169.41 28.23 169.41 42.35 141.18 42.35 141.18 56.47 155.29 56.47 155.29 70.59 169.41 70.59 169.41 56.47 183.53 56.47 183.53 42.35 183.53 28.23 197.65 28.23 211.76 28.23 211.76 14.12 225.88 14.12 225.88 0 98.82 0 98.82 14.12 112.94 14.12"/>
    <line class="d" x1="240" x2="225.88"/>
    <line class="d" x1="84.71" x2="98.82"/>
    <rect class="c" x="70.59" width="14.12" height="14.12"/>
  </g>
</svg>
