<?xml version="1.0" encoding="utf-8"?>
<!-- Generator: Adobe Illustrator 24.0.1, SVG Export Plug-In . SVG Version: 6.00 Build 0)  -->
<svg version="1.1" id="Layer_1" xmlns="http://www.w3.org/2000/svg" xmlns:xlink="http://www.w3.org/1999/xlink" x="0px" y="0px"
	 viewBox="0 0 41.3 41.3" style="enable-background:new 0 0 41.3 41.3;" xml:space="preserve">
<title>Artboard 33</title>
<path d="M37.6,41.3c-1,0-1.9-0.4-2.6-1.1L20.6,25.8L6.3,40.2c-1.4,1.4-3.7,1.4-5.2,0s-1.4-3.7,0-5.2l14.4-14.4L1.1,6.3
	c-1.4-1.4-1.4-3.7,0-5.2s3.7-1.4,5.2,0l14.4,14.4L35,1.1c1.4-1.4,3.7-1.4,5.2,0c1.4,1.4,1.4,3.7,0,5.2l0,0L25.8,20.6L40.2,35
	c1.4,1.4,1.4,3.7,0,5.2c0,0,0,0,0,0C39.5,40.9,38.6,41.3,37.6,41.3z"/>
</svg>
