<?xml version="1.0" encoding="utf-8"?>
<!-- Generator: Adobe Illustrator 24.0.1, SVG Export Plug-In . SVG Version: 6.00 Build 0)  -->
<svg version="1.1"
	 id="Layer_1" xmlns:cc="http://creativecommons.org/ns#" xmlns:dc="http://purl.org/dc/elements/1.1/" xmlns:inkscape="http://www.inkscape.org/namespaces/inkscape" xmlns:rdf="http://www.w3.org/1999/02/22-rdf-syntax-ns#" xmlns:sodipodi="http://sodipodi.sourceforge.net/DTD/sodipodi-0.dtd" xmlns:svg="http://www.w3.org/2000/svg"
	 xmlns="http://www.w3.org/2000/svg" xmlns:xlink="http://www.w3.org/1999/xlink" x="0px" y="0px" viewBox="0 0 48 45"
	 style="enable-background:new 0 0 48 45;" xml:space="preserve">
<style type="text/css">
	.st0{fill-rule:evenodd;clip-rule:evenodd;fill:#D77643;}
	.st1{fill-rule:evenodd;clip-rule:evenodd;fill:#FEC243;}
</style>
<path class="st0" d="M16.9,0.3c-0.6,0-1,0.4-1,1v6c0,0.6,0.4,1,1,1s1-0.4,1-1v-6C17.9,0.7,17.5,0.3,16.9,0.3z M6.9,1.3
	c-0.3,0-0.5,0.1-0.7,0.3C5.9,2,5.9,2.6,6.2,3l4,4c0.4,0.4,1,0.4,1.4,0c0.4-0.4,0.4-1,0-1.4l-4-4C7.5,1.4,7.2,1.3,6.9,1.3z M38.6,2.3
	c-0.6,0-1.3,0.1-1.9,0.4L26,7c-2.5,1.1-3.8,4-2.7,6.5l4.4,10.6c1.1,2.5,4,3.8,6.5,2.7l10.6-4.4c2.5-1.1,3.8-4,2.7-6.5L43.2,5.3
	C42.4,3.4,40.5,2.3,38.6,2.3z M38.6,4.2c1.2,0,2.3,0.7,2.7,1.9l4.4,10.6c0.6,1.6-0.1,3.3-1.6,3.9L33.5,25c-1.6,0.6-3.3-0.1-3.9-1.6
	l-4.4-10.6c-0.6-1.6,0.1-3.3,1.6-3.9l10.6-4.4C37.8,4.3,38.2,4.2,38.6,4.2z M5.9,11.3c-0.6,0-1,0.4-1,1s0.4,1,1,1h6c0.6,0,1-0.4,1-1
	s-0.4-1-1-1H5.9z M31.4,11.3c-0.8,0-1.5,0.7-1.5,1.5s0.7,1.5,1.5,1.5l0,0c0.8,0,1.5-0.7,1.5-1.5l0,0C32.9,11.9,32.3,11.3,31.4,11.3z
	 M39.4,15.3c-0.8,0-1.5,0.7-1.5,1.5s0.7,1.5,1.5,1.5s1.5-0.7,1.5-1.5S40.3,15.3,39.4,15.3z M9.3,17.3c-1.9,0-3.8,1.2-4.6,3.1
	L0.3,30.9c-1.1,2.5,0.2,5.5,2.7,6.5l10.6,4.4c2.5,1.1,5.5-0.2,6.5-2.7l4.4-10.6c1.1-2.5-0.2-5.5-2.7-6.5l-10.6-4.4
	C10.6,17.4,9.9,17.2,9.3,17.3z M9.3,19.2c0.4,0,0.8,0.1,1.2,0.2l10.6,4.4c1.6,0.6,2.3,2.4,1.6,3.9l-4.4,10.6
	c-0.6,1.6-2.4,2.3-3.9,1.6L3.8,35.6c-1.6-0.6-2.3-2.4-1.6-3.9l4.4-10.6C7,19.9,8.1,19.3,9.3,19.2z M10.4,23.3
	c-0.8,0-1.5,0.7-1.5,1.5s0.7,1.5,1.5,1.5s1.5-0.7,1.5-1.5S11.3,23.3,10.4,23.3z M17.4,26.3c-0.8,0-1.5,0.7-1.5,1.5s0.7,1.5,1.5,1.5
	s1.5-0.7,1.5-1.5S18.3,26.3,17.4,26.3z M7.4,30.3c-0.8,0-1.5,0.7-1.5,1.5c0,0.8,0.7,1.5,1.5,1.5s1.5-0.7,1.5-1.5
	C8.9,30.9,8.3,30.3,7.4,30.3z M34.9,31.3c-0.5,0-1,0.5-1,1c0,0.6,0.4,1,1,1h6c0.6,0,1-0.4,1-1c0-0.6-0.4-1-1-1H34.9z M14.4,33.3
	c-0.8,0-1.5,0.7-1.5,1.5s0.7,1.5,1.5,1.5s1.5-0.7,1.5-1.5S15.3,33.3,14.4,33.3z M29.9,36.3c-0.5,0-1,0.5-1,1v6c0,0.6,0.4,1,1,1
	s1-0.4,1-1v-6C30.9,36.7,30.5,36.3,29.9,36.3z M35.9,37.3c-0.3,0-0.5,0.1-0.7,0.3c-0.4,0.4-0.4,1,0,1.4l0,0l0,0l4,4
	c0.4,0.4,1,0.4,1.4,0c0.4-0.4,0.4-1,0-1.4l-4-4l0,0l0,0C36.4,37.4,36.2,37.3,35.9,37.3z"/>
<path class="st1" d="M17,0.8c-0.6,0-1,0.4-1,1v6c0,0.6,0.4,1,1,1s1-0.4,1-1v-6C18,1.2,17.6,0.8,17,0.8z M7,1.8
	c-0.3,0-0.5,0.1-0.7,0.3c-0.4,0.4-0.4,1,0,1.4l4,4c0.4,0.4,1,0.4,1.4,0c0.4-0.4,0.4-1,0-1.4l-4-4C7.5,1.9,7.3,1.8,7,1.8z M38.6,2.8
	c-0.6,0-1.3,0.1-1.9,0.4L26.1,7.6c-2.5,1.1-3.8,4-2.7,6.5l4.4,10.6c1.1,2.5,4,3.8,6.5,2.7L44.9,23c2.5-1.1,3.8-4,2.7-6.5L43.2,5.9
	C42.4,4,40.6,2.8,38.6,2.8z M38.6,4.8c1.2,0,2.3,0.7,2.7,1.9l4.4,10.6c0.6,1.6-0.1,3.3-1.6,3.9l-10.6,4.4c-1.6,0.6-3.3-0.1-3.9-1.6
	l-4.4-10.6c-0.6-1.6,0.1-3.3,1.6-3.9L37.5,5C37.8,4.9,38.2,4.8,38.6,4.8z M6,11.8c-0.6,0-1,0.4-1,1s0.4,1,1,1h6c0.6,0,1-0.4,1-1
	s-0.4-1-1-1H6z M31.5,11.8c-0.8,0-1.5,0.7-1.5,1.5s0.7,1.5,1.5,1.5l0,0c0.8,0,1.5-0.7,1.5-1.5l0,0C33,12.5,32.3,11.8,31.5,11.8z
	 M39.5,15.8c-0.8,0-1.5,0.7-1.5,1.5s0.7,1.5,1.5,1.5c0.8,0,1.5-0.7,1.5-1.5S40.3,15.8,39.5,15.8z M9.4,17.8c-1.9,0-3.8,1.2-4.6,3.1
	L0.4,31.5C-0.7,34,0.5,37,3.1,38l10.6,4.4c2.5,1.1,5.5-0.2,6.5-2.7l4.4-10.6c1.1-2.5-0.2-5.5-2.7-6.5l-10.6-4.4
	C10.7,17.9,10,17.8,9.4,17.8z M9.4,19.8c0.4,0,0.8,0.1,1.2,0.2l10.6,4.4c1.6,0.6,2.3,2.4,1.6,3.9l-4.4,10.6
	c-0.6,1.6-2.4,2.3-3.9,1.6L3.9,36.2c-1.6-0.6-2.3-2.4-1.6-3.9l4.4-10.6C7.1,20.5,8.2,19.8,9.4,19.8z M10.5,23.8
	c-0.8,0-1.5,0.7-1.5,1.5s0.7,1.5,1.5,1.5s1.5-0.7,1.5-1.5S11.3,23.8,10.5,23.8z M17.5,26.8c-0.8,0-1.5,0.7-1.5,1.5s0.7,1.5,1.5,1.5
	s1.5-0.7,1.5-1.5S18.3,26.8,17.5,26.8z M7.5,30.8c-0.8,0-1.5,0.7-1.5,1.5c0,0.8,0.7,1.5,1.5,1.5S9,33.1,9,32.3
	C9,31.5,8.3,30.8,7.5,30.8z M35,31.8c-0.5,0-1,0.5-1,1c0,0.6,0.4,1,1,1h6c0.6,0,1-0.4,1-1s-0.4-1-1-1H35z M14.5,33.8
	c-0.8,0-1.5,0.7-1.5,1.5s0.7,1.5,1.5,1.5s1.5-0.7,1.5-1.5S15.3,33.8,14.5,33.8z M30,36.8c-0.5,0-1,0.5-1,1v6c0,0.6,0.4,1,1,1
	s1-0.4,1-1v-6C31,37.2,30.6,36.8,30,36.8z M36,37.8c-0.3,0-0.5,0.1-0.7,0.3c-0.4,0.4-0.4,1,0,1.4l0,0l0,0l4,4c0.4,0.4,1,0.4,1.4,0
	c0.4-0.4,0.4-1,0-1.4l-4-4l0,0l0,0C36.5,37.9,36.3,37.8,36,37.8z"/>
</svg>
