<?xml version="1.0" encoding="utf-8"?>
<!-- Generator: Adobe Illustrator 24.0.1, SVG Export Plug-In . SVG Version: 6.00 Build 0)  -->
<svg version="1.1"
	 id="Layer_1" xmlns:cc="http://creativecommons.org/ns#" xmlns:dc="http://purl.org/dc/elements/1.1/" xmlns:inkscape="http://www.inkscape.org/namespaces/inkscape" xmlns:rdf="http://www.w3.org/1999/02/22-rdf-syntax-ns#" xmlns:sodipodi="http://sodipodi.sourceforge.net/DTD/sodipodi-0.dtd" xmlns:svg="http://www.w3.org/2000/svg"
	 xmlns="http://www.w3.org/2000/svg" xmlns:xlink="http://www.w3.org/1999/xlink" x="0px" y="0px" viewBox="0 0 48 45"
	 style="enable-background:new 0 0 48 45;" xml:space="preserve">
<style type="text/css">
	.st0{fill:#D77643;}
	.st1{fill:#FEC243;}
</style>
<g>
	<g>
		<path class="st0" d="M10.1,9.9h0.8v0.8h-0.8v0.8H5.5v1.5h4.6v0.8h0.8v0.8h-0.8v0.8H5.5v1.5h4.6v0.8h0.8V19h-0.8v0.8H1V19H0.2V9.9
			H1v1.5h0.8v-0.8h0.8V9.9H1V9.1h9.1V9.9z"/>
		<path class="st0" d="M22.2,9.9H23V19h-0.8v0.8h-2.3V19h-0.8v-2.3h-0.8v-0.8h-0.8v3h-0.8v0.8h-3.8V19h-0.8V9.9h0.8v1.5h0.8v-0.8
			h0.8V9.9h-1.5V9.1h3.8v0.8h0.8v3h0.8v0.8h0.8V9.9h0.8V9.1h2.3V9.9z"/>
		<path class="st0" d="M34.4,11.4h0.8v6.8h-0.8V19h-0.8v0.8h-8.3V19h-0.8V9.9h0.8v1.5H26v-0.8h0.8V9.9h-1.5V9.1h7.6v0.8h0.8v0.8h0.8
			V11.4z M31.3,12.2v-0.8h-1.5v5.3h1.5v-0.8h0.8v-3.8H31.3z"/>
	</g>
</g>
<g>
	<g>
		<path class="st0" d="M10.1,24.7h0.8v0.8h-0.8v0.8H5.5v5.3h2.3V30H7v-0.8H6.3v-0.8H7v-0.8h3v0.8h0.8V33h-0.8v0.8H9.3v0.8H1.7v-0.8
			H1V33H0.2v-7.6H1v0.8h0.8v-0.8h0.8v-0.8H1.7v-0.8h8.3V24.7z"/>
		<path class="st0" d="M22.2,26.2H23v7.6h-0.8v0.8h-1.5v-0.8h-0.8v-4.6h-2.3v4.6h-0.8v0.8h-3.8v-0.8h-0.8v-8.3h0.8v0.8h0.8v-0.8h0.8
			v-0.8h-0.8v-0.8h6.8v0.8h0.8v0.8h0.8V26.2z M17.7,27.7h2.3v-1.5h-2.3V27.7z"/>
		<path class="st0" d="M35.1,24.7h0.8v9.1h-0.8v0.8h-2.3v-0.8h-0.8v-2.3h-0.8v0.8h-0.8v-0.8h-0.8v2.3H29v0.8h-3.8v-0.8h-0.8v-9.1
			h0.8v1.5H26v-0.8h0.8v-0.8h-1.5v-0.8H29v0.8h0.8v3h0.8v0.8h0.8v-0.8h0.8v-3h0.8v-0.8h2.3V24.7z"/>
		<path class="st0" d="M47.2,24.7H48v0.8h-0.8v0.8h-4.6v1.5h4.6v0.8H48v0.8h-0.8V30h-4.6v1.5h4.6v0.8H48v1.5h-0.8v0.8h-9.1v-0.8
			h-0.8v-9.1h0.8v1.5h0.8v-0.8h0.8v-0.8h-1.5v-0.8h9.1V24.7z"/>
	</g>
</g>
<g>
	<g>
		<path class="st1" d="M10,10.6h0.8v0.8H10v0.8H5.4v1.5H10v0.8h0.8v0.8H10v0.8H5.4v1.5H10v0.8h0.8v1.5H10v0.8H0.9v-0.8H0.1v-9.1h0.8
			v1.5h0.8v-0.8h0.8v-0.8H0.9V9.8H10V10.6z"/>
		<path class="st1" d="M22.1,10.6h0.8v9.1h-0.8v0.8h-2.3v-0.8h-0.8v-2.3h-0.8v-0.8h-0.8v3h-0.8v0.8H13v-0.8h-0.8v-9.1H13v1.5h0.8
			v-0.8h0.8v-0.8H13V9.8h3.8v0.8h0.8v3h0.8v0.8h0.8v-3.8h0.8V9.8h2.3V10.6z"/>
		<path class="st1" d="M34.2,12.1H35v6.8h-0.8v0.8h-0.8v0.8h-8.3v-0.8h-0.8v-9.1h0.8v1.5h0.8v-0.8h0.8v-0.8h-1.5V9.8h7.6v0.8h0.8
			v0.8h0.8V12.1z M31.2,12.9v-0.8h-1.5v5.3h1.5v-0.8H32v-3.8H31.2z"/>
	</g>
</g>
<g>
	<g>
		<path class="st1" d="M10,25.4h0.8v0.8H10v0.8H5.4v5.3h2.3v-1.5H6.9v-0.8H6.2v-0.8h0.8v-0.8h3v0.8h0.8v4.6H10v0.8H9.2v0.8H1.6v-0.8
			H0.9v-0.8H0.1v-7.6h0.8v0.8h0.8v-0.8h0.8v-0.8H1.6v-0.8H10V25.4z"/>
		<path class="st1" d="M22.1,26.9h0.8v7.6h-0.8v0.8h-1.5v-0.8h-0.8v-4.6h-2.3v4.6h-0.8v0.8H13v-0.8h-0.8v-8.3H13v0.8h0.8v-0.8h0.8
			v-0.8h-0.8v-0.8h6.8v0.8h0.8v0.8h0.8V26.9z M17.6,28.4h2.3v-1.5h-2.3V28.4z"/>
		<path class="st1" d="M35,25.4h0.8v9.1H35v0.8h-2.3v-0.8H32v-2.3h-0.8V33h-0.8v-0.8h-0.8v2.3h-0.8v0.8h-3.8v-0.8h-0.8v-9.1h0.8v1.5
			h0.8v-0.8h0.8v-0.8h-1.5v-0.8h3.8v0.8h0.8v3h0.8v0.8h0.8v-0.8H32v-3h0.8v-0.8H35V25.4z"/>
		<path class="st1" d="M47.1,25.4h0.8v0.8h-0.8v0.8h-4.6v1.5h4.6v0.8h0.8v0.8h-0.8v0.8h-4.6v1.5h4.6V33h0.8v1.5h-0.8v0.8H38v-0.8
			h-0.8v-9.1H38v1.5h0.8v-0.8h0.8v-0.8H38v-0.8h9.1V25.4z"/>
	</g>
</g>
</svg>
