<svg xmlns="http://www.w3.org/2000/svg" viewBox="0 0 230 180">
  <defs>
    <style>
      .a {
        fill: #3f8d8a;
      }

      .b {
        fill: #74afa6;
      }

      .c, .f {
        fill: none;
        stroke-linecap: round;
        stroke-linejoin: round;
        stroke-width: 0;
      }

      .c {
        stroke: #74afa6;
      }

      .d {
        fill: #a9dbd0;
      }

      .e {
        fill: #d1f0e9;
      }

      .f {
        stroke: #d1f0e9;
      }
    </style>
  </defs>
  <title>greenstory</title>
  <g>
    <rect class="a" x="50" y="110" width="10" height="70"/>
    <polygon class="a" points="50 110 50 60 60 60 60 0 50 0 40 0 40 60 20 60 20 110 10 110 10 60 20 60 20 0 10 0 0 0 0 180 30 180 30 110 50 110"/>
    <rect class="b" x="30" y="110" width="20" height="70"/>
    <line class="c" x1="50" y1="180" x2="60" y2="180"/>
    <line class="c" x1="30" y1="180" y2="180"/>
    <rect class="b" x="50" y="60" width="10" height="50"/>
    <rect class="b" x="10" y="60" width="10" height="50"/>
    <rect class="b" x="20" width="20" height="60"/>
    <line class="c" x1="20" x2="10"/>
    <line class="c" x1="50" x2="60"/>
    <polygon class="d" points="220 0 220 60 200 60 200 120 220 120 220 180 230 180 230 0 220 0"/>
    <polygon class="d" points="90 70 90 120 120 120 120 60 80 60 80 0 70 0 60 0 60 60 70 60 70 110 60 110 60 180 80 180 80 70 90 70"/>
    <rect class="d" x="190" width="10" height="60"/>
    <rect class="d" x="190" y="120" width="10" height="60"/>
    <rect class="d" x="160" y="120" width="20" height="60"/>
    <rect class="d" x="120" y="120" width="10" height="60"/>
    <rect class="d" x="180" y="60" width="10" height="60"/>
    <rect class="d" x="130" y="60" width="30" height="60"/>
    <rect class="d" x="120" width="10" height="60"/>
    <rect class="d" x="160" width="20" height="60"/>
    <polygon class="e" points="90 120 90 70 80 70 80 180 120 180 120 120 90 120"/>
    <rect class="e" x="200" y="120" width="20" height="60"/>
    <rect class="e" x="180" y="120" width="10" height="60"/>
    <rect class="e" x="130" y="120" width="30" height="60"/>
    <line class="f" x1="230" y1="180" x2="220" y2="180"/>
    <line class="f" x1="80" y1="180" x2="60" y2="180"/>
    <line class="f" x1="200" y1="180" x2="190" y2="180"/>
    <line class="f" x1="180" y1="180" x2="160" y2="180"/>
    <line class="f" x1="130" y1="180" x2="120" y2="180"/>
    <rect class="e" x="120" y="60" width="10" height="60"/>
    <rect class="e" x="160" y="60" width="20" height="60"/>
    <rect class="e" x="60" y="60" width="10" height="50"/>
    <rect class="e" x="190" y="60" width="10" height="60"/>
    <rect class="e" x="200" width="20" height="60"/>
    <rect class="e" x="80" width="40" height="60"/>
    <rect class="e" x="180" width="10" height="60"/>
    <rect class="e" x="130" width="30" height="60"/>
    <line class="f" x1="160" x2="180"/>
    <line class="f" x1="120" x2="130"/>
    <line class="f" x1="60" x2="70"/>
  </g>
</svg>
