<svg xmlns="http://www.w3.org/2000/svg" viewBox="0 0 240 100">
  <defs>
    <style>
      .a {
        fill: #3f8d8a;
      }

      .b {
        fill: #74afa6;
      }

      .c {
        fill: #d1f0e9;
      }
    </style>
  </defs>
  <title>greenground</title>
  <g>
    <polygon class="a" points="100 10 80 10 80 40 90 40 90 100 120 100 120 40 130 40 130 100 160 100 160 40 170 40 170 100 200 100 200 40 210 40 210 30 230 30 240 30 240 20 100 20 100 10"/>
    <rect class="b" x="200" y="40" width="10" height="60"/>
    <rect class="b" x="120" y="40" width="10" height="60"/>
    <polygon class="b" points="60 100 60 0 50 0 30 0 0 0 0 100 60 100"/>
    <rect class="b" x="160" y="40" width="10" height="60"/>
    <rect class="b" x="80" y="40" width="10" height="60"/>
    <polygon class="b" points="100 20 240 20 240 10 230 10 100 10 100 20"/>
    <polygon class="c" points="210 40 210 100 230 100 230 30 210 30 210 40"/>
    <polygon class="c" points="80 100 80 40 80 10 100 10 230 10 230 0 220 0 200 0 190 0 180 0 160 0 130 0 120 0 80 0 60 0 60 100 80 100"/>
  </g>
</svg>
