<svg xmlns="http://www.w3.org/2000/svg" viewBox="0 0 240 94.74">
  <defs>
    <style>
      .a {
        fill: #ab05a9;
      }

      .b {
        fill: #ce1ed7;
      }

      .c {
        fill: #f53dff;
      }
    </style>
  </defs>
  <title>pinkroof</title>
  <g>
    <rect class="a" x="50.53" y="18.95" width="6.32" height="75.79"/>
    <rect class="a" x="37.89" y="18.95" width="6.32" height="75.79"/>
    <rect class="a" x="25.26" y="18.95" width="6.32" height="75.79"/>
    <rect class="a" x="12.63" y="18.95" width="6.32" height="75.79"/>
    <rect class="b" x="170.53" y="82.11" width="25.26" height="6.32"/>
    <rect class="b" x="138.95" y="75.79" width="18.95" height="6.32"/>
    <polygon class="b" points="183.16 50.53 107.37 50.53 107.37 75.79 138.95 75.79 138.95 69.47 164.21 69.47 164.21 75.79 202.1 75.79 202.1 56.84 183.16 56.84 183.16 50.53"/>
    <rect class="b" x="183.16" y="44.21" width="12.63" height="6.32"/>
    <rect class="b" x="214.74" y="25.26" width="6.32" height="6.32"/>
    <polygon class="b" points="107.37 44.21 145.26 44.21 145.26 37.9 195.79 37.9 195.79 31.58 202.1 31.58 202.1 25.26 107.37 25.26 107.37 44.21"/>
    <rect class="b" x="82.11" y="25.26" width="6.32" height="12.63"/>
    <rect class="b" x="221.05" width="6.32" height="6.32"/>
    <rect class="b" x="94.74" width="6.32" height="6.32"/>
    <polygon class="b" points="63.16 6.32 63.16 0 44.21 0 44.21 6.32 0 6.32 0 94.74 12.63 94.74 12.63 18.95 18.95 18.95 18.95 94.74 25.26 94.74 25.26 18.95 31.58 18.95 31.58 94.74 37.9 94.74 37.9 18.95 44.21 18.95 44.21 94.74 50.53 94.74 50.53 18.95 56.84 18.95 56.84 94.74 69.47 94.74 69.47 6.32 63.16 6.32"/>
    <path class="c" d="M233.68,6.32V0h-6.31V6.32H113.68V0H101.05V6.32H69.47V94.74H240V6.32ZM88.42,37.89H82.11V25.26h6.31ZM195.79,88.42H170.53V82.11h25.26Zm6.32-12.63h-37.9V69.47H139v6.32h18.94v6.32H139V75.79H107.37V50.53h75.79V44.21h12.63v6.32H183.16v6.31h19Zm0-44.21h-6.32v6.31H145.26v6.32H107.37V25.26h94.74Zm18.94,0h-6.31V25.26h6.31Z"/>
    <rect class="c" x="63.16" width="6.32" height="6.32"/>
  </g>
</svg>
