<svg xmlns="http://www.w3.org/2000/svg" viewBox="0 0 240 166.99">
  <defs>
    <style>
      .a {
        fill: #e85c0b;
      }

      .b {
        fill: #9f17a1;
      }

      .c {
        fill: #911616;
      }

      .d {
        fill: #3472a5;
      }

      .e {
        fill: #f97527;
      }

      .f {
        fill: #d13f17;
      }

      .g {
        fill: #6a188a;
      }
    </style>
  </defs>
  <title>redground</title>
  <g>
    <rect class="a" x="83.48" y="156.55" width="51.93" height="10.41"/>
    <rect class="a" x="156.52" y="156.55" width="51.93" height="10.41"/>
    <g>
      <rect class="b" y="52.2" width="10.43" height="10.43"/>
      <polygon class="b" points="52.17 31.33 52.17 52.2 31.3 52.2 31.3 62.64 52.17 62.64 52.17 125.25 41.74 125.25 41.74 156.55 41.74 166.99 62.61 166.99 62.61 31.33 52.17 31.33"/>
      <rect class="b" y="31.33" width="20.87" height="10.43"/>
      <rect class="b" x="52.17" width="10.43" height="0.03"/>
      <polygon class="c" points="219.13 135.68 219.13 125.25 219.13 62.64 208.7 62.64 208.7 52.2 166.96 52.2 166.96 62.64 198.26 62.64 198.26 73.07 208.7 73.07 208.7 156.55 219.13 156.55 219.13 135.68"/>
      <rect class="c" x="156.52" y="62.64" width="10.43" height="10.43"/>
      <rect class="c" x="83.48" y="62.64" width="10.43" height="10.43"/>
      <polygon class="c" points="146.09 62.64 135.65 62.64 135.65 52.2 93.91 52.2 93.91 62.64 125.22 62.64 125.22 73.07 135.65 73.07 135.65 156.55 146.09 156.55 146.09 62.64"/>
      <rect class="a" x="219.13" y="125.25" width="20.87" height="10.43"/>
      <polygon class="a" points="83.48 114.81 83.48 104.38 73.04 104.38 73.04 52.2 83.48 52.2 83.48 31.33 62.61 31.33 62.61 166.99 73.04 166.99 73.04 114.81 83.48 114.81"/>
      <rect class="a" x="219.13" y="41.77" width="10.43" height="10.43"/>
      <rect class="a" x="146.09" y="31.33" width="20.87" height="10.43"/>
      <rect class="a" x="93.91" y="31.33" width="20.87" height="10.43"/>
      <rect class="a" x="114.78" width="20.87" height="0.03"/>
      <rect class="a" x="62.61" width="10.43" height="0.03"/>
      <polygon class="d" points="41.74 83.51 31.3 83.51 31.3 156.55 41.74 156.55 41.74 125.25 41.74 83.51"/>
      <rect class="d" x="10.43" y="83.51" width="10.43" height="73.04"/>
      <rect class="d" x="187.83" y="83.51" width="10.43" height="73.04"/>
      <rect class="d" x="166.96" y="83.51" width="10.43" height="73.04"/>
      <rect class="d" x="114.78" y="83.51" width="10.43" height="73.04"/>
      <rect class="d" x="93.91" y="83.51" width="10.43" height="73.04"/>
      <polygon class="d" points="62.61 0.03 52.17 0.03 0 0.03 0 20.9 62.61 20.9 62.61 0.03"/>
      <polygon class="e" points="114.78 0.03 73.04 0.03 62.61 0.03 62.61 20.9 240 20.9 240 0.03 135.65 0.03 114.78 0.03"/>
      <polygon class="f" points="219.13 156.55 208.7 156.55 208.7 166.99 240 166.99 240 135.68 219.13 135.68 219.13 156.55"/>
      <path class="f" d="M167,41.77H146.09V31.33H114.78V41.77H93.91V31.33H83.48V52.2H73v52.18H83.48v10.43H73V167H83.48V156.55H93.91v-73h10.44v73h10.43v-73h10.44v73h10.43V73.07H125.22V62.64H93.91V73.07H83.48V62.64H93.91V52.2h41.74V62.64h10.44v93.91H135.65V167h20.87V156.55H167v-73h10.43v73h10.44v-73h10.43v73H208.7V73.07H198.26V62.64H167V73.07H156.52V62.64H167V52.2H208.7V62.64h10.43v62.61H240V31.33H167Zm52.17,0h10.44V52.2H219.13Z"/>
      <rect class="f" x="135.65" width="104.35" height="0.03"/>
      <rect class="f" x="73.04" width="41.74" height="0.03"/>
      <path class="g" d="M0,20.9V31.33H20.87V41.77H0V52.2H10.43V62.64H0V167H41.74V156.55H31.3v-73H41.74v41.74H52.17V62.64H31.3V52.2H52.17V31.33H240V20.9H0ZM20.87,156.55H10.43v-73H20.87Z"/>
      <rect class="g" width="52.17" height="0.03"/>
    </g>
  </g>
</svg>
