<?xml version="1.0" encoding="utf-8"?>
<!-- Generator: Adobe Illustrator 24.0.1, SVG Export Plug-In . SVG Version: 6.00 Build 0)  -->
<svg version="1.1"
	 id="Layer_1" xmlns:cc="http://creativecommons.org/ns#" xmlns:dc="http://purl.org/dc/elements/1.1/" xmlns:inkscape="http://www.inkscape.org/namespaces/inkscape" xmlns:rdf="http://www.w3.org/1999/02/22-rdf-syntax-ns#" xmlns:sodipodi="http://sodipodi.sourceforge.net/DTD/sodipodi-0.dtd" xmlns:svg="http://www.w3.org/2000/svg"
	 xmlns="http://www.w3.org/2000/svg" xmlns:xlink="http://www.w3.org/1999/xlink" x="0px" y="0px" viewBox="0 0 81.8 54.6"
	 style="enable-background:new 0 0 81.8 54.6;" xml:space="preserve">
<style type="text/css">
	.st0{fill:#D77643;}
	.st1{fill:#FEC243;}
	.st2{fill:#1653B4;}
	.st3{fill:#3074DC;}
</style>
<g>
	<g>
		<rect x="22.7" y="50" class="st0" width="4.5" height="4.5"/>
		<rect x="18.2" y="45.5" class="st0" width="4.5" height="4.5"/>
		<rect x="13.6" y="40.9" class="st0" width="4.5" height="4.5"/>
		<rect x="9.1" y="36.4" class="st0" width="4.5" height="4.5"/>
		<rect x="4.5" y="31.8" class="st0" width="4.5" height="4.5"/>
		<rect y="27.3" class="st0" width="4.5" height="4.5"/>
		<polygon class="st0" points="77.3,40.9 72.7,40.9 68.2,40.9 63.6,40.9 59.1,40.9 54.6,40.9 50,40.9 45.5,40.9 40.9,40.9 
			36.4,40.9 31.8,40.9 27.3,40.9 27.3,45.5 31.8,45.5 36.4,45.5 40.9,45.5 45.5,45.5 50,45.5 54.6,45.5 59.1,45.5 63.6,45.5 
			68.2,45.5 72.7,45.5 77.3,45.5 81.8,45.5 81.8,40.9 		"/>
	</g>
	<polygon class="st1" points="77.3,9.1 72.7,9.1 68.2,9.1 63.6,9.1 59.1,9.1 54.6,9.1 50,9.1 45.5,9.1 40.9,9.1 36.4,9.1 31.8,9.1 
		27.3,9.1 27.3,4.5 27.3,0 22.7,0 22.7,4.5 18.2,4.5 18.2,9.1 13.6,9.1 13.6,13.6 9.1,13.6 9.1,18.2 4.5,18.2 4.5,22.7 0,22.7 
		0,27.3 4.5,27.3 4.5,31.8 9.1,31.8 9.1,36.4 13.6,36.4 13.6,40.9 18.2,40.9 18.2,45.5 22.7,45.5 22.7,50 27.3,50 27.3,45.5 
		27.3,40.9 31.8,40.9 36.4,40.9 40.9,40.9 45.5,40.9 50,40.9 54.6,40.9 59.1,40.9 63.6,40.9 68.2,40.9 72.7,40.9 77.3,40.9 
		81.8,40.9 81.8,36.4 81.8,31.8 81.8,27.3 81.8,22.7 81.8,18.2 81.8,13.6 81.8,9.1 	"/>
</g>
<g>
	<g>
		<g>
			<path class="st2" d="M30.9,20.8h0.7v1.4h-0.7v0.7h-4.2v0.7h4.2v0.7h0.7v4.2h-0.7v0.7h-0.7V30h-7.8v-0.7h-0.7v-2.1h0.7v-0.7H28
				v-0.7h-5.6V25h-0.7v-3.5h0.7v0.7h0.7v-0.7h0.7v-0.7h-0.7v-0.7h7.8V20.8z"/>
			<path class="st2" d="M33.7,22.2H33v-1.4h0.7V22.2z M42.2,20.8h0.7v1.4h-0.7v0.7H40v6.4h-0.7V30h-2.8v-0.7h-0.7v-6.4h-2.1v-0.7
				h0.7v-0.7h0.7v-0.7h-1.4v-0.7h8.5V20.8z"/>
			<path class="st2" d="M53.5,22.2h0.7v7.1h-0.7V30H52v-0.7h-0.7V25h-2.1v4.2h-0.7V30H45v-0.7h-0.7v-7.8H45v0.7h0.7v-0.7h0.7v-0.7
				h-0.7v-0.7H52v0.7h0.7v0.7h0.7V22.2z M49.2,23.6h2.1v-1.4h-2.1V23.6z"/>
			<path class="st2" d="M64.7,21.5h0.7v2.8h-0.7V25H64v0.7h0.7v0.7h0.7v2.8h-0.7V30h-1.4v-0.7h-0.7v-0.7h-0.7v-0.7h-0.7v-0.7h-0.7
				v2.1h-0.7V30h-3.5v-0.7h-0.7v-8.5h0.7v1.4H57v-0.7h0.7v-0.7h-1.4v-0.7H64v0.7h0.7V21.5z M62.6,22.2h-2.1v1.4h2.1V22.2z"/>
			<path class="st2" d="M67.6,22.2h-0.7v-1.4h0.7V22.2z M76,20.8h0.7v1.4H76v0.7h-2.1v6.4h-0.7V30h-2.8v-0.7h-0.7v-6.4h-2.1v-0.7
				h0.7v-0.7H69v-0.7h-1.4v-0.7H76V20.8z"/>
		</g>
	</g>
	<g>
		<g>
			<path class="st2" d="M30.9,20.2h0.7v1.4h-0.7v0.7h-4.2V23h4.2v0.7h0.7v4.2h-0.7v0.7h-0.7v0.7h-7.8v-0.7h-0.7v-2.1h0.7v-0.7h5.6
				v-0.7h-5.6v-0.7h-0.7v-3.5h0.7v0.7h0.7v-0.7h0.7v-0.7h-0.7v-0.7h7.8V20.2z"/>
			<path class="st2" d="M33.7,21.6H33v-1.4h0.7V21.6z M42.2,20.2h0.7v1.4h-0.7v0.7h-2.1v6.4h-0.7v0.7h-2.8v-0.7h-0.7v-6.4h-2.1v-0.7
				h0.7v-0.7h0.7v-0.7h-1.4v-0.7h8.5V20.2z"/>
			<path class="st2" d="M53.5,21.6h0.7v7.1h-0.7v0.7h-1.4v-0.7h-0.7v-4.2h-2.1v4.2h-0.7v0.7H45v-0.7h-0.7v-7.8H45v0.7h0.7v-0.7h0.7
				v-0.7h-0.7v-0.7h6.4v0.7h0.7v0.7h0.7V21.6z M49.2,23h2.1v-1.4h-2.1V23z"/>
			<path class="st2" d="M64.8,20.9h0.7v2.8h-0.7v0.7h-0.7v0.7h0.7v0.7h0.7v2.8h-0.7v0.7h-1.4v-0.7h-0.7v-0.7H62v-0.7h-0.7v-0.7h-0.7
				v2.1h-0.7v0.7h-3.5v-0.7h-0.7v-8.5h0.7v1.4H57v-0.7h0.7v-0.7h-1.4v-0.7h7.8v0.7h0.7V20.9z M62.7,21.6h-2.1V23h2.1V21.6z"/>
			<path class="st2" d="M67.6,21.6h-0.7v-1.4h0.7V21.6z M76.1,20.2h0.7v1.4h-0.7v0.7H74v6.4h-0.7v0.7h-2.8v-0.7h-0.7v-6.4h-2.1v-0.7
				h0.7v-0.7H69v-0.7h-1.4v-0.7h8.5V20.2z"/>
		</g>
	</g>
	<g>
		<g>
			<path class="st3" d="M30.9,20.8h0.7v1.4h-0.7v0.7h-4.2v0.7h4.2v0.7h0.7v4.2h-0.7v0.7h-0.7V30h-7.8v-0.7h-0.7v-2.1h0.7v-0.7H28
				v-0.7h-5.6V25h-0.7v-3.5h0.7v0.7h0.7v-0.7h0.7v-0.7h-0.7v-0.7h7.8V20.8z"/>
			<path class="st3" d="M33.7,22.2H33v-1.4h0.7V22.2z M42.2,20.8h0.7v1.4h-0.7v0.7H40v6.4h-0.7V30h-2.8v-0.7h-0.7v-6.4h-2.1v-0.7
				h0.7v-0.7h0.7v-0.7h-1.4v-0.7h8.5V20.8z"/>
			<path class="st3" d="M53.5,22.2h0.7v7.1h-0.7V30H52v-0.7h-0.7V25h-2.1v4.2h-0.7V30H45v-0.7h-0.7v-7.8H45v0.7h0.7v-0.7h0.7v-0.7
				h-0.7v-0.7H52v0.7h0.7v0.7h0.7V22.2z M49.2,23.6h2.1v-1.4h-2.1V23.6z"/>
			<path class="st3" d="M64.7,21.5h0.7v2.8h-0.7V25H64v0.7h0.7v0.7h0.7v2.8h-0.7V30h-1.4v-0.7h-0.7v-0.7h-0.7v-0.7h-0.7v-0.7h-0.7
				v2.1h-0.7V30h-3.5v-0.7h-0.7v-8.5h0.7v1.4H57v-0.7h0.7v-0.7h-1.4v-0.7H64v0.7h0.7V21.5z M62.6,22.2h-2.1v1.4h2.1V22.2z"/>
			<path class="st3" d="M67.6,22.2h-0.7v-1.4h0.7V22.2z M76,20.8h0.7v1.4H76v0.7h-2.1v6.4h-0.7V30h-2.8v-0.7h-0.7v-6.4h-2.1v-0.7
				h0.7v-0.7H69v-0.7h-1.4v-0.7H76V20.8z"/>
		</g>
	</g>
</g>
</svg>
