<svg xmlns="http://www.w3.org/2000/svg" viewBox="0 0 240 124">
  <defs>
    <style>
      .a {
        fill: #c45a3d;
      }

      .b {
        fill: #944334;
      }

      .c {
        fill: #fec243;
      }

      .d {
        fill: #be4a2f;
      }

      .e {
        fill: #5a6988;
      }

      .f {
        fill: #feae34;
      }

      .g {
        fill: #d77643;
      }

      .h {
        fill: #8b9bb4;
      }
    </style>
  </defs>
  <title>yellowstory</title>
  <g>
    <rect class="a" y="17.79" width="8.89" height="8.89"/>
    <rect class="b" x="186.67" y="88.9" width="8.89" height="17.78"/>
    <rect class="b" x="133.33" y="88.9" width="8.89" height="17.78"/>
    <rect class="b" x="80" y="88.9" width="8.89" height="17.78"/>
    <rect class="b" x="186.67" y="35.57" width="8.89" height="44.44"/>
    <rect class="b" x="133.33" y="35.57" width="8.89" height="44.44"/>
    <rect class="b" x="80" y="35.57" width="8.89" height="44.44"/>
    <rect class="b" x="177.78" y="26.68" width="8.89" height="8.89"/>
    <rect class="b" x="124.44" y="26.68" width="8.89" height="8.89"/>
    <rect class="b" x="71.11" y="26.68" width="8.89" height="8.89"/>
    <rect class="c" x="168.89" y="115.57" width="17.78" height="8.43"/>
    <rect class="c" x="62.22" y="106.68" width="17.78" height="17.32"/>
    <rect class="c" x="44.44" y="17.79" width="8.89" height="53.33"/>
    <rect class="c" x="97.78" y="44.45" width="8.89" height="17.78"/>
    <rect class="c" x="213.33" y="26.68" width="8.89" height="8.89"/>
    <rect class="c" x="97.78" y="26.68" width="17.78" height="8.89"/>
    <rect class="c" x="186.67" width="8.89" height="0.01"/>
    <rect class="c" x="62.22" width="17.78" height="0.01"/>
    <rect class="d" x="168.89" y="88.9" width="8.89" height="17.78"/>
    <rect class="d" x="115.56" y="88.9" width="8.89" height="17.78"/>
    <polygon class="d" points="186.67 35.57 177.78 35.57 168.89 35.57 168.89 80.01 186.67 80.01 186.67 35.57"/>
    <polygon class="d" points="133.33 80.01 133.33 35.57 124.44 35.57 115.56 35.57 115.56 80.01 133.33 80.01"/>
    <polygon class="d" points="80 35.57 71.11 35.57 62.22 35.57 62.22 80.01 80 80.01 80 35.57"/>
    <rect class="e" x="44.44" y="80.01" width="17.78" height="26.67"/>
    <polygon class="f" points="231.11 106.68 222.22 106.68 213.33 106.68 213.33 88.9 204.44 88.9 204.44 106.68 195.56 106.68 186.67 106.68 177.78 106.68 168.89 106.68 160 106.68 160 88.9 151.11 88.9 151.11 106.68 142.22 106.68 133.33 106.68 124.44 106.68 115.56 106.68 106.67 106.68 106.67 88.9 97.78 88.9 97.78 106.68 88.89 106.68 80 106.68 80 124 168.89 124 168.89 115.57 186.67 115.57 186.67 124 240 124 240 106.68 231.11 106.68"/>
    <polygon class="f" points="53.33 71.12 44.44 71.12 44.44 80.01 62.22 80.01 62.22 35.57 71.11 35.57 71.11 26.68 80 26.68 88.89 26.68 88.89 35.57 97.78 35.57 97.78 26.68 115.56 26.68 115.56 35.57 124.44 35.57 124.44 26.68 133.33 26.68 142.22 26.68 142.22 35.57 151.11 35.57 151.11 80.01 168.89 80.01 168.89 35.57 177.78 35.57 177.78 26.68 186.67 26.68 195.56 26.68 195.56 35.57 204.44 35.57 204.44 80.01 222.22 80.01 222.22 35.57 213.33 35.57 213.33 26.68 222.22 26.68 222.22 17.79 53.33 17.79 53.33 71.12"/>
    <polygon class="f" points="106.67 44.45 106.67 62.23 97.78 62.23 97.78 80.01 115.56 80.01 115.56 35.57 97.78 35.57 97.78 44.45 106.67 44.45"/>
    <rect class="f" x="80" width="106.67" height="0.01"/>
    <polygon class="f" points="222.22 0.01 240 0.01 240 0 195.56 0 195.56 0.01 222.22 0.01"/>
    <rect class="g" x="195.56" y="35.57" width="8.89" height="44.44"/>
    <rect class="g" x="142.22" y="35.57" width="8.89" height="44.44"/>
    <polygon class="g" points="97.78 80.01 97.78 62.23 97.78 44.45 97.78 35.57 88.89 35.57 88.89 80.01 97.78 80.01"/>
    <rect class="g" x="186.67" y="26.68" width="8.89" height="8.89"/>
    <rect class="g" x="133.33" y="26.68" width="8.89" height="8.89"/>
    <rect class="g" x="80" y="26.68" width="8.89" height="8.89"/>
    <polygon class="g" points="44.44 106.68 44.44 80.01 44.44 71.12 44.44 17.79 53.33 17.79 222.22 17.79 222.22 0.01 195.56 0.01 186.67 0.01 80 0.01 62.22 0.01 62.22 0 0 0 0 17.79 8.89 17.79 8.89 26.68 0 26.68 0 124 62.22 124 62.22 106.68 44.44 106.68"/>
    <polygon class="h" points="195.56 80.01 186.67 80.01 168.89 80.01 151.11 80.01 142.22 80.01 133.33 80.01 115.56 80.01 97.78 80.01 88.89 80.01 80 80.01 62.22 80.01 62.22 106.68 80 106.68 80 88.9 88.89 88.9 88.89 106.68 97.78 106.68 97.78 88.9 106.67 88.9 106.67 106.68 115.56 106.68 115.56 88.9 124.44 88.9 124.44 106.68 133.33 106.68 133.33 88.9 142.22 88.9 142.22 106.68 151.11 106.68 151.11 88.9 160 88.9 160 106.68 168.89 106.68 168.89 88.9 177.78 88.9 177.78 106.68 186.67 106.68 186.67 88.9 195.56 88.9 195.56 106.68 204.44 106.68 204.44 88.9 213.33 88.9 213.33 106.68 222.22 106.68 222.22 88.9 231.11 88.9 231.11 106.68 240 106.68 240 80.01 222.22 80.01 204.44 80.01 195.56 80.01"/>
  </g>
</svg>
