<svg xmlns="http://www.w3.org/2000/svg" viewBox="0 0 240 94">
  <defs>
    <style>
      .a {
        fill: #ab05a9;
      }

      .b {
        fill: #ce1ed7;
      }

      .c {
        fill: #f53dff;
      }
    </style>
  </defs>
  <title>pinkstory</title>
  <g>
    <polygon class="a" points="183.16 0 183.16 5.82 195.79 5.82 195.79 18.45 183.16 18.45 183.16 24.77 195.79 24.77 195.79 43.71 183.16 43.71 183.16 50.03 195.79 50.03 195.79 68.98 183.16 68.98 183.16 75.29 195.79 75.29 195.79 94 202.1 94 202.1 0 183.16 0"/>
    <polygon class="a" points="157.9 0 157.9 5.82 170.53 5.82 170.53 18.45 157.9 18.45 157.9 24.77 170.53 24.77 170.53 43.71 157.9 43.71 157.9 50.03 170.53 50.03 170.53 68.98 157.9 68.98 157.9 75.29 170.53 75.29 170.53 94 176.84 94 176.84 0 157.9 0"/>
    <polygon class="a" points="132.63 0 132.63 5.82 145.26 5.82 145.26 18.45 132.63 18.45 132.63 24.77 145.26 24.77 145.26 43.71 132.63 43.71 132.63 50.03 145.26 50.03 145.26 68.98 132.63 68.98 132.63 75.29 145.26 75.29 145.26 94 151.58 94 151.58 0 132.63 0"/>
    <polygon class="a" points="107.37 0 107.37 5.82 120 5.82 120 18.45 107.37 18.45 107.37 24.77 120 24.77 120 43.71 107.37 43.71 107.37 50.03 120 50.03 120 68.98 107.37 68.98 107.37 75.29 120 75.29 120 94 126.32 94 126.32 0 107.37 0"/>
    <rect class="a" x="50.53" width="6.32" height="94"/>
    <rect class="a" x="37.89" width="6.32" height="94"/>
    <rect class="a" x="25.26" width="6.32" height="94"/>
    <rect class="a" x="12.63" width="6.32" height="94"/>
    <rect class="b" x="183.16" y="75.29" width="12.63" height="18.71"/>
    <rect class="b" x="157.89" y="75.29" width="12.63" height="18.71"/>
    <rect class="b" x="132.63" y="75.29" width="12.63" height="18.71"/>
    <rect class="b" x="107.37" y="75.29" width="12.63" height="18.71"/>
    <rect class="b" x="183.16" y="50.03" width="12.63" height="18.95"/>
    <rect class="b" x="157.89" y="50.03" width="12.63" height="18.95"/>
    <rect class="b" x="132.63" y="50.03" width="12.63" height="18.95"/>
    <rect class="b" x="107.37" y="50.03" width="12.63" height="18.95"/>
    <rect class="b" x="214.74" y="31.08" width="6.32" height="6.32"/>
    <rect class="b" x="82.11" y="31.08" width="6.32" height="6.32"/>
    <rect class="b" x="183.16" y="24.77" width="12.63" height="18.95"/>
    <rect class="b" x="157.89" y="24.77" width="12.63" height="18.95"/>
    <rect class="b" x="132.63" y="24.77" width="12.63" height="18.95"/>
    <rect class="b" x="107.37" y="24.77" width="12.63" height="18.95"/>
    <rect class="b" x="183.16" y="5.82" width="12.63" height="12.63"/>
    <rect class="b" x="157.89" y="5.82" width="12.63" height="12.63"/>
    <rect class="b" x="132.63" y="5.82" width="12.63" height="12.63"/>
    <rect class="b" x="107.37" y="5.82" width="12.63" height="12.63"/>
    <rect class="b" x="18.95" width="6.32" height="94"/>
    <rect class="b" x="44.21" width="6.32" height="94"/>
    <rect class="b" x="31.58" width="6.32" height="94"/>
    <rect class="b" width="12.63" height="94"/>
    <rect class="b" x="56.84" width="12.63" height="94"/>
    <path class="c" d="M107.37,69V0H69.47V94h37.9V69Zm-19-31.58H82.11V31.08h6.31Z"/>
    <polygon class="c" points="132.63 68.98 132.63 50.03 132.63 43.71 132.63 24.77 132.63 18.45 132.63 5.82 132.63 0 126.32 0 126.32 94 132.63 94 132.63 75.29 132.63 68.98"/>
    <polygon class="c" points="183.16 68.98 183.16 50.03 183.16 43.71 183.16 24.77 183.16 18.45 183.16 5.82 183.16 0 176.84 0 176.84 94 183.16 94 183.16 75.29 183.16 68.98"/>
    <path class="c" d="M202.11,0V94H240V0Zm12.63,37.4V31.08h6.31V37.4Z"/>
    <polygon class="c" points="157.9 68.98 157.9 50.03 157.9 43.71 157.9 24.77 157.9 18.45 157.9 5.82 157.9 0 151.58 0 151.58 94 157.9 94 157.9 75.29 157.9 68.98"/>
  </g>
</svg>
