<svg xmlns="http://www.w3.org/2000/svg" viewBox="0 0 240 156">
  <defs>
    <style>
      .a {
        fill: #9f17a1;
      }

      .b {
        fill: #911616;
      }

      .c {
        fill: #e85c0b;
      }

      .d {
        fill: #3472a5;
      }

      .e {
        fill: #f97527;
      }

      .f {
        fill: #d13f17;
      }

      .g {
        fill: #6a188a;
      }
    </style>
  </defs>
  <title>redstory</title>
  <g>
    <rect class="a" y="135.16" width="10.43" height="10.43"/>
    <polygon class="a" points="52.17 41.25 52.17 93.42 41.74 93.42 41.74 114.29 52.17 114.29 52.17 156 62.61 156 62.61 41.25 52.17 41.25"/>
    <rect class="a" y="41.25" width="20.87" height="10.43"/>
    <rect class="a" x="20.87" y="9.94" width="31.3" height="10.43"/>
    <polygon class="b" points="187.83 62.12 198.26 62.12 198.26 135.16 208.7 135.16 208.7 51.68 187.83 51.68 187.83 62.12"/>
    <polygon class="b" points="156.52 62.12 166.96 62.12 166.96 135.16 177.39 135.16 177.39 51.68 156.52 51.68 156.52 62.12"/>
    <polygon class="b" points="104.35 135.16 114.78 135.16 114.78 51.68 93.91 51.68 93.91 62.12 104.35 62.12 104.35 135.16"/>
    <polygon class="b" points="125.22 62.12 135.65 62.12 135.65 135.16 146.09 135.16 146.09 51.68 125.22 51.68 125.22 62.12"/>
    <rect class="c" x="114.78" y="145.59" width="20.87" height="10.41"/>
    <polygon class="c" points="83.48 135.16 83.48 124.72 73.04 124.72 73.04 82.99 93.91 82.99 93.91 72.55 83.48 72.55 83.48 62.12 73.04 62.12 73.04 41.25 62.61 41.25 62.61 156 73.04 156 73.04 135.16 83.48 135.16"/>
    <rect class="c" x="219.13" y="135.16" width="10.43" height="10.43"/>
    <rect class="c" x="219.13" y="93.42" width="20.87" height="10.43"/>
    <rect class="c" x="219.13" y="51.68" width="10.43" height="10.43"/>
    <rect class="d" x="156.52" y="62.12" width="10.43" height="73.04"/>
    <polygon class="d" points="31.3 62.12 31.3 135.16 41.74 135.16 41.74 114.29 41.74 93.42 41.74 62.12 31.3 62.12"/>
    <rect class="d" x="10.43" y="62.12" width="10.43" height="73.04"/>
    <rect class="d" x="187.83" y="62.12" width="10.43" height="73.04"/>
    <rect class="d" x="125.22" y="62.12" width="10.43" height="73.04"/>
    <polygon class="d" points="93.91 135.16 104.35 135.16 104.35 62.12 93.91 62.12 93.91 72.55 93.91 82.99 93.91 135.16"/>
    <polygon class="d" points="62.61 30.81 62.61 0 52.17 0 52.17 9.94 52.17 20.38 20.87 20.38 20.87 9.94 20.87 0 0 0 0 30.81 62.61 30.81"/>
    <polygon class="e" points="240 30.81 240 0 208.7 0 208.7 20.38 93.91 20.38 93.91 0 62.61 0 62.61 30.81 240 30.81"/>
    <path class="f" d="M219.13,103.86V93.42H240V41.25H73V62.12H83.48V72.55H93.91V51.68h20.87v83.48H93.91V83H73v41.74H83.48v10.43H73V156h41.74V145.59h20.87V156H240V103.86Zm0-52.18h10.44V62.12H219.13Zm-73,83.48H125.22V51.68h20.87Zm31.3,0H156.52V51.68h20.87Zm31.31,0H187.83V51.68H208.7Zm10.43,10.43V135.16h10.44v10.43Z"/>
    <rect class="f" x="93.91" width="114.78" height="20.38"/>
    <polygon class="g" points="41.74 114.29 41.74 135.16 31.3 135.16 31.3 62.12 41.74 62.12 41.74 93.42 52.17 93.42 52.17 41.25 62.61 41.25 73.04 41.25 240 41.25 240 30.81 62.61 30.81 0 30.81 0 41.25 20.87 41.25 20.87 51.68 0 51.68 0 135.16 10.44 135.16 10.44 62.12 20.87 62.12 20.87 135.16 10.44 135.16 10.44 145.59 0 145.59 0 156 52.17 156 52.17 114.29 41.74 114.29"/>
    <rect class="g" x="20.87" width="31.3" height="9.94"/>
  </g>
</svg>
