<svg xmlns="http://www.w3.org/2000/svg" viewBox="0 0 240 124.9">
  <defs>
    <style>
      .a {
        fill: #c45a3d;
      }

      .b {
        fill: #fec243;
      }

      .c {
        fill: #733e39;
      }

      .d {
        fill: #be4a2f;
      }

      .e {
        fill: #5a6988;
      }

      .f {
        fill: #feae34;
      }

      .g {
        fill: #d77643;
      }

      .h {
        fill: #8b9bb4;
      }
    </style>
  </defs>
  <title>yellowground</title>
  <g>
    <rect class="a" x="35.56" y="98.23" width="8.89" height="8.89"/>
    <rect class="a" x="26.67" y="98.23" width="8.89" height="8.89"/>
    <rect class="a" x="8.89" y="53.79" width="8.89" height="8.89"/>
    <rect class="a" y="53.79" width="8.89" height="8.89"/>
    <rect class="a" x="35.56" y="9.34" width="8.89" height="8.89"/>
    <rect class="a" x="26.67" y="9.34" width="8.89" height="8.89"/>
    <polygon class="b" points="213.33 98.23 204.44 98.23 204.44 116.01 222.22 116.01 222.22 107.12 213.33 107.12 213.33 98.23"/>
    <rect class="b" x="97.78" y="62.68" width="8.89" height="26.67"/>
    <rect class="b" x="204.44" y="27.12" width="17.78" height="17.78"/>
    <rect class="b" x="97.78" y="27.12" width="8.89" height="8.89"/>
    <rect class="b" x="151.11" y="18.23" width="17.78" height="8.89"/>
    <polygon class="b" points="62.22 36.01 62.22 27.12 53.33 27.12 53.33 18.23 44.44 18.23 44.44 98.23 44.44 107.12 44.44 124.9 53.33 124.9 53.33 36.01 62.22 36.01"/>
    <rect class="b" x="168.89" width="17.78" height="0.45"/>
    <rect class="b" x="62.22" width="17.78" height="0.45"/>
    <polygon class="c" points="186.67 44.9 186.67 62.68 177.78 62.68 168.89 62.68 168.89 71.57 177.78 71.57 186.67 71.57 186.67 89.34 177.78 89.34 168.89 89.34 168.89 98.23 177.78 98.23 186.67 98.23 186.67 116.01 177.78 116.01 168.89 116.01 168.89 124.9 195.56 124.9 195.56 44.9 186.67 44.9"/>
    <polygon class="c" points="133.33 44.9 133.33 62.68 124.44 62.68 115.56 62.68 115.56 71.57 124.44 71.57 133.33 71.57 133.33 89.34 124.44 89.34 115.56 89.34 115.56 98.23 124.44 98.23 133.33 98.23 133.33 116.01 124.44 116.01 115.56 116.01 115.56 124.9 142.22 124.9 142.22 44.9 133.33 44.9"/>
    <polygon class="c" points="80 44.9 80 62.68 71.11 62.68 62.22 62.68 62.22 71.57 71.11 71.57 80 71.57 80 89.34 71.11 89.34 62.22 89.34 62.22 98.23 71.11 98.23 80 98.23 80 116.01 71.11 116.01 62.22 116.01 62.22 124.9 88.89 124.9 88.89 44.9 80 44.9"/>
    <rect class="c" x="177.78" y="36.01" width="8.89" height="8.89"/>
    <rect class="c" x="124.44" y="36.01" width="8.89" height="8.89"/>
    <rect class="c" x="71.11" y="36.01" width="8.89" height="8.89"/>
    <polygon class="d" points="204.44 98.23 204.44 44.9 195.56 44.9 195.56 124.9 204.44 124.9 204.44 116.01 204.44 98.23"/>
    <rect class="d" x="142.22" y="44.9" width="8.89" height="80"/>
    <polygon class="d" points="97.78 62.68 97.78 44.9 88.89 44.9 88.89 124.9 97.78 124.9 97.78 89.34 97.78 62.68"/>
    <rect class="d" x="186.67" y="36.01" width="8.89" height="8.89"/>
    <rect class="d" x="133.33" y="36.01" width="8.89" height="8.89"/>
    <rect class="d" x="80" y="36.01" width="8.89" height="8.89"/>
    <rect class="e" x="177.78" y="98.23" width="8.89" height="17.78"/>
    <rect class="e" x="124.44" y="98.23" width="8.89" height="17.78"/>
    <rect class="e" x="71.11" y="98.23" width="8.89" height="17.78"/>
    <rect class="e" x="177.78" y="71.57" width="8.89" height="17.78"/>
    <rect class="e" x="124.44" y="71.57" width="8.89" height="17.78"/>
    <rect class="e" x="71.11" y="71.57" width="8.89" height="17.78"/>
    <rect class="e" x="177.78" y="44.9" width="8.89" height="17.78"/>
    <rect class="e" x="124.44" y="44.9" width="8.89" height="17.78"/>
    <rect class="e" x="71.11" y="44.9" width="8.89" height="17.78"/>
    <rect class="f" x="204.44" y="116.01" width="17.78" height="8.89"/>
    <polygon class="f" points="204.44 98.23 213.33 98.23 213.33 107.12 222.22 107.12 222.22 44.9 204.44 44.9 204.44 98.23"/>
    <path class="f" d="M168.89,27.12H151.11V18.23H53.33v8.89h8.89V36H53.33V124.9h8.89v-80h8.89V36H88.89V44.9h8.89V62.68h8.89V89.34H97.78V124.9h17.78v-80h8.88V36h17.78V44.9h8.89v80h17.78v-80h8.89V36h17.78V44.9h8.88V27.12h17.78V18.23H168.89ZM106.67,36H97.78V27.12h8.89Z"/>
    <polygon class="f" points="222.22 0.45 240 0.45 240 0 186.67 0 186.67 0.45 222.22 0.45"/>
    <rect class="f" x="80" width="88.89" height="0.45"/>
    <polygon class="g" points="8.89 53.79 17.78 53.79 17.78 62.68 8.89 62.68 0 62.68 0 124.9 44.44 124.9 44.44 107.12 35.56 107.12 26.67 107.12 26.67 98.23 35.56 98.23 44.44 98.23 44.44 18.23 35.56 18.23 26.67 18.23 26.67 9.34 35.56 9.34 44.44 9.34 44.44 18.23 53.33 18.23 151.11 18.23 168.89 18.23 222.22 18.23 222.22 0.45 186.67 0.45 168.89 0.45 80 0.45 62.22 0.45 62.22 0 0 0 0 53.79 8.89 53.79"/>
    <rect class="h" x="168.89" y="98.23" width="8.89" height="17.78"/>
    <rect class="h" x="115.56" y="98.23" width="8.89" height="17.78"/>
    <rect class="h" x="62.22" y="98.23" width="8.89" height="17.78"/>
    <rect class="h" x="168.89" y="71.57" width="8.89" height="17.78"/>
    <rect class="h" x="115.56" y="71.57" width="8.89" height="17.78"/>
    <rect class="h" x="62.22" y="71.57" width="8.89" height="17.78"/>
    <rect class="h" x="168.89" y="44.9" width="8.89" height="17.78"/>
    <rect class="h" x="115.56" y="44.9" width="8.89" height="17.78"/>
    <rect class="h" x="62.22" y="44.9" width="8.89" height="17.78"/>
  </g>
</svg>
